<svg width="249" height="285" viewBox="0 0 249 285" fill="none" xmlns="http://www.w3.org/2000/svg">
<g clip-path="url(#clip0_301_10)">
<rect x="0.171875" y="0.0532227" width="248.115" height="284.036" rx="34.75" fill="#FBD1D1"/>
<path d="M168.037 23.2712C173.237 35.2712 170.204 42.8825 168.037 45.1881L172.436 47.1257C173.874 47.7592 174.53 49.436 173.904 50.8773V50.8773C172.768 53.489 174.316 63.8881 174.685 66.7119C174.854 68.0072 174.976 69.5168 175.037 71.2712C175.339 80.0311 170.908 86.8711 166.997 90.8437C164.92 92.9541 161.557 93.7449 159.9 96.1992C158.598 98.128 157.537 101.415 157.537 106.771C157.537 112.915 158.933 117.5 160.488 120.568C161.947 123.445 163.169 126.736 162.574 129.906V129.906C162.225 131.768 162.479 133.692 163.298 135.399L166.232 141.511C167.341 143.822 167.072 146.557 165.534 148.608L165.169 149.095C164.138 150.469 163.793 152.24 164.233 153.901L167.188 165.063C167.483 166.18 169.004 166.336 169.521 165.303V165.303C169.813 164.72 170.503 164.457 171.108 164.7L175.739 166.552C178.191 167.533 180.989 166.526 182.254 164.207V164.207C182.764 163.272 183.547 162.516 184.5 162.04L190.037 159.271V155.254C190.037 153.715 192.128 153.251 192.778 154.646V154.646C193.168 155.48 194.229 155.739 194.959 155.178L199.463 151.713C199.844 151.419 200.189 151.081 200.489 150.706L202.037 148.771L203.988 146.039C204.353 145.529 204.659 144.979 204.9 144.4L206.037 141.671C206.642 140.218 208.062 139.271 209.637 139.271V139.271C211.791 139.271 213.537 137.525 213.537 135.371V130.771L215.548 126.749C216.154 125.537 217.393 124.771 218.748 124.771H219.037C219.981 124.771 220.87 124.327 221.437 123.571V123.571C221.826 123.052 222.037 122.42 222.037 121.771V121.366C222.037 119.38 223.646 117.771 225.631 117.771V117.771C226.535 117.771 227.406 117.431 228.07 116.818L231.635 113.527C232.847 112.408 233.537 110.833 233.537 109.183V107.102C233.537 104.986 235.252 103.271 237.368 103.271V103.271C238.713 103.271 239.952 102.561 240.514 101.338C241.892 98.3408 244.28 92.3135 247.374 82.4166C247.817 80.9988 248.066 79.5033 247.641 78.0802C244.074 66.1578 217.224 29.1911 199.479 11.4507C197.886 9.85814 196.686 7.88342 195.091 6.29341C193.867 5.07393 192.075 3.81745 189.601 2.8663C184.069 0.738934 176.468 -0.0340932 170.629 0.988783C161.684 2.55581 148.496 6.46562 140.537 9.07739C153.019 11.783 165.009 16.284 168.037 23.2712Z" fill="url(#paint0_linear_301_10)"/>
<path d="M116.037 5.77116C109.336 6.77316 100.202 8.4199 91.5368 10.4886C80.3702 8.06106 55.9368 4.66253 47.5368 10.4886C37.0368 17.7712 -1.96318 81.2711 0.536817 98.2711C2.38746 110.856 20.3636 128.406 31.0929 137.295C32.6254 138.565 33.5368 140.433 33.5368 142.423V142.423C33.5368 144.238 34.297 145.971 35.6329 147.2L57.4824 167.301C58.1815 167.944 58.9721 168.48 59.8285 168.891V168.891C65.498 171.612 72.2095 168.24 73.4098 162.067L74.0976 158.53C74.3691 157.134 73.8696 155.699 72.7895 154.773V154.773C71.7066 153.845 71.2075 152.406 71.4834 151.006L77.4564 120.714C77.7937 119.004 79.2935 117.771 81.0368 117.771V117.771H84.0368C81.8989 115.811 80.0123 113.779 78.4741 111.965C75.7831 108.792 75.2066 104.493 75.7934 100.374C75.8908 99.6901 75.9799 98.9879 76.0587 98.2711L72.7639 96.3C70.018 94.6573 67.8421 92.1897 66.7285 89.1899C66.0164 87.2717 65.3228 85.2524 64.7213 83.2711C63.2112 78.2972 62.2816 73.5633 63.0973 71.2712L63.8985 67.5713C64.4381 65.0791 65.6043 62.7655 67.2867 60.8493L81.0368 45.1881C80.0368 46.3271 77.6412 47.2383 76.0587 41.7712C74.4761 36.304 80.718 30.1599 84.0368 27.7712C89.3714 23.1034 101.868 19.8752 112.037 17.2455C119.291 15.3697 108.437 15.2761 119.866 12.2552C121.127 11.9219 122.672 11.4152 121.763 10.4798C120.552 9.23276 117.886 7.31202 116.037 5.77116Z" fill="url(#paint1_linear_301_10)"/>
<path fill-rule="evenodd" clip-rule="evenodd" d="M84.0368 27.7712C80.718 30.1599 74.4761 36.304 76.0587 41.7712C77.6412 47.2383 80.0368 46.3271 81.0368 45.1881L81.8609 44.2495C83.2943 42.6169 84.3544 40.6914 84.9674 38.6072V38.6072C85.9798 35.1652 85.7199 31.4739 84.2352 28.2077L84.0368 27.7712Z" fill="#764C4A"/>
<path d="M163.537 63.7712C168.209 71.3636 168.333 77.1321 166.538 81.2843C163.686 87.8823 154.338 84.5061 154.914 77.3409C155.296 72.5915 157.55 67.5631 163.537 63.7712Z" fill="#001317"/>
<path d="M76.0587 98.2711C77.1181 88.6316 76.3066 76.3514 68.5368 71.2712C65.3605 69.1943 63.7201 69.521 63.0973 71.2712C62.2816 73.5633 63.2112 78.2972 64.7213 83.2711C65.3228 85.2524 66.0164 87.2717 66.7285 89.1899C67.8421 92.1897 70.018 94.6573 72.7639 96.3L76.0587 98.2711Z" fill="#021718"/>
<path d="M116.037 5.77116C109.336 6.77316 100.202 8.4199 91.5368 10.4886M116.037 5.77116C117.886 7.31202 120.552 9.23276 121.763 10.4798C122.672 11.4152 121.127 11.9219 119.866 12.2552C108.437 15.2761 119.291 15.3697 112.037 17.2455C101.868 19.8752 89.3714 23.1034 84.0368 27.7712M116.037 5.77116C122.372 6.11928 131.582 7.13631 140.537 9.07739M65.5368 23.2712C64.0386 18.5268 77.1408 13.9254 91.5368 10.4886M91.5368 10.4886C80.3702 8.06106 55.9368 4.66253 47.5368 10.4886C37.0368 17.7712 -1.96318 81.2711 0.536817 98.2711C2.38746 110.856 20.3636 128.406 31.0929 137.295C32.6254 138.565 33.5368 140.433 33.5368 142.423V142.423C33.5368 144.238 34.297 145.971 35.6329 147.2L57.4824 167.301C58.1815 167.944 58.9721 168.48 59.8285 168.891V168.891C65.498 171.612 72.2095 168.24 73.4098 162.067L74.0976 158.53C74.3691 157.134 73.8696 155.699 72.7895 154.773V154.773C71.7066 153.845 71.2075 152.406 71.4834 151.006L77.4564 120.714C77.7937 119.004 79.2935 117.771 81.0368 117.771V117.771M81.0368 117.771C81.5368 117.771 82.8368 117.771 84.0368 117.771M81.0368 117.771H84.0368M84.0368 117.771C81.8989 115.811 80.0123 113.779 78.4741 111.965C75.7831 108.792 75.2066 104.493 75.7934 100.374C75.8908 99.6901 75.9799 98.9879 76.0587 98.2711M76.0587 98.2711C77.1181 88.6316 76.3066 76.3514 68.5368 71.2712C65.3605 69.1943 63.7201 69.521 63.0973 71.2712M76.0587 98.2711L72.7639 96.3C70.018 94.6573 67.8421 92.1897 66.7285 89.1899C66.0164 87.2717 65.3228 85.2524 64.7213 83.2711M74.5368 83.2711L68.4861 81.2543C66.8848 80.7205 65.1641 81.6423 64.7213 83.2711V83.2711M64.7213 83.2711C63.2112 78.2972 62.2816 73.5633 63.0973 71.2712M63.0973 71.2712L63.8985 67.5713C64.4381 65.0791 65.6043 62.7655 67.2867 60.8493L81.0368 45.1881M84.0368 27.7712L84.2352 28.2077C85.7199 31.4739 85.9798 35.1652 84.9674 38.6072V38.6072C84.3544 40.6914 83.2943 42.6169 81.8609 44.2495L81.0368 45.1881M84.0368 27.7712C80.718 30.1599 74.4761 36.304 76.0587 41.7712C77.6412 47.2383 80.0368 46.3271 81.0368 45.1881M168.037 45.1881C170.204 42.8825 173.237 35.2712 168.037 23.2712C165.009 16.284 153.019 11.783 140.537 9.07739M168.037 45.1881C162.537 44.8825 153.937 48.1712 163.537 63.7712M168.037 45.1881L172.436 47.1257C173.874 47.7592 174.53 49.436 173.904 50.8773V50.8773C172.768 53.489 174.316 63.8881 174.685 66.7119C174.854 68.0072 174.976 69.5168 175.037 71.2712C175.339 80.0311 170.908 86.8711 166.997 90.8437C164.92 92.9541 161.557 93.7449 159.9 96.1992C158.598 98.128 157.537 101.415 157.537 106.771C157.537 112.915 158.933 117.5 160.488 120.568C161.947 123.445 163.169 126.736 162.574 129.906V129.906C162.225 131.768 162.479 133.692 163.298 135.399L166.232 141.511C167.341 143.822 167.072 146.557 165.534 148.608L165.169 149.095C164.138 150.469 163.793 152.24 164.233 153.901L167.188 165.063C167.483 166.18 169.004 166.336 169.521 165.303V165.303C169.813 164.72 170.503 164.457 171.108 164.7L175.739 166.552C178.191 167.533 180.989 166.526 182.254 164.207V164.207C182.764 163.272 183.547 162.516 184.5 162.04L190.037 159.271M163.537 63.7712C168.209 71.3636 168.333 77.1321 166.538 81.2843C163.686 87.8823 154.338 84.5061 154.914 77.3409C155.296 72.5915 157.55 67.5631 163.537 63.7712ZM140.537 9.07739C148.496 6.46562 161.684 2.55581 170.629 0.988783C176.468 -0.0340932 184.069 0.738934 189.601 2.8663C192.075 3.81745 193.867 5.07393 195.091 6.29341C196.686 7.88342 197.886 9.85814 199.479 11.4507C217.224 29.1911 244.074 66.1578 247.641 78.0802C248.066 79.5033 247.817 80.9988 247.374 82.4166C244.28 92.3135 241.892 98.3408 240.514 101.338C239.952 102.561 238.713 103.271 237.368 103.271V103.271C235.252 103.271 233.537 104.986 233.537 107.102V109.183C233.537 110.833 232.847 112.408 231.635 113.527L228.07 116.818C227.406 117.431 226.535 117.771 225.631 117.771V117.771C223.646 117.771 222.037 119.38 222.037 121.366V121.771C222.037 122.42 221.826 123.052 221.437 123.571V123.571C220.87 124.327 219.981 124.771 219.037 124.771H218.748C217.393 124.771 216.154 125.537 215.548 126.749L213.537 130.771M213.537 130.771L207.037 124.771M213.537 130.771V135.371C213.537 137.525 211.791 139.271 209.637 139.271V139.271C208.062 139.271 206.642 140.218 206.037 141.671L204.9 144.4C204.659 144.979 204.353 145.529 203.988 146.039L202.037 148.771L200.489 150.706C200.189 151.081 199.844 151.419 199.463 151.713L194.959 155.178C194.229 155.739 193.168 155.48 192.778 154.646V154.646C192.128 153.251 190.037 153.715 190.037 155.254V159.271M190.037 159.271L186.537 151.271" stroke="black" stroke-width="0.5"/>
<path d="M139.908 45.2711C139.333 45.072 138.637 44.7461 137.959 44.2963C132.531 41.663 123.275 37.7711 118.158 37.7711C110.908 37.7711 99.4084 39.2711 98.4084 41.2711C97.4084 43.2711 103.408 56.0211 108.658 56.2711C113.908 56.5211 132.658 60.7711 134.158 58.5211C135.658 56.2711 145.408 54.5211 144.658 51.7711C143.908 49.0211 142.908 43.5211 139.908 45.2711Z" fill="url(#paint2_linear_301_10)"/>
<path d="M170.908 29.0211C171.408 16.7711 150.658 16.2711 147.028 24.2711C144.601 29.6188 153.475 42.7864 160.545 51.639V51.639C155.811 45.4414 170.564 39.0271 170.826 31.233C170.85 30.524 170.877 29.7868 170.908 29.0211Z" fill="url(#paint3_linear_301_10)"/>
<path d="M158.722 171.528C158.239 166.688 156.365 161.239 158.325 156.787C160 152.981 162.864 149.814 167.408 150.771C173.375 152.027 170.692 167.851 167.247 179.756C165.731 184.993 151.009 189.028 156.408 188.271V188.271C158.342 188 159.426 178.595 158.722 171.528Z" fill="#808080"/>
<path d="M79.9083 158.271C76.575 167.604 75.0833 188.859 85.4084 194.021C104.408 203.521 79.9083 179.271 89.4084 174.771C106.128 166.851 79.1853 160.604 79.9083 158.271Z" fill="#808080"/>
<path d="M79.9083 158.271C76.575 167.604 75.0833 188.859 85.4084 194.021C104.408 203.521 79.9083 179.271 89.4084 174.771C106.128 166.851 79.1853 160.604 79.9083 158.271ZM79.9083 158.271C85.4084 158.271 93.8641 167.721 98.4084 160.521C101.908 153.771 103.486 150.771 121.658 150.771C134.658 150.771 143.503 159.999 147.028 167.271M130.908 27.2711C124.742 26.7711 112.108 26.0711 110.908 27.2711V27.2711C110.51 27.6699 109.212 29.5128 108.67 29.6698L95.0522 33.6171C94.1782 33.8704 93.4819 34.5327 93.1853 35.393V35.393C92.3988 37.6739 94.6737 39.8147 96.9027 38.8913L107.398 34.5433C108.232 34.1977 109.114 33.9958 110.016 33.9578C120.066 33.5338 137.378 33.7584 135.658 37.7711C134.336 40.8563 136.081 43.0512 137.959 44.2963M139.908 45.2711C142.908 43.5211 143.908 49.0211 144.658 51.7711C145.408 54.5211 135.658 56.2711 134.158 58.5211C132.658 60.7711 113.908 56.5211 108.658 56.2711C103.408 56.0211 97.4084 43.2711 98.4084 41.2711C99.4084 39.2711 110.908 37.7711 118.158 37.7711C123.275 37.7711 132.531 41.663 137.959 44.2963M139.908 45.2711C139.333 45.072 138.637 44.7461 137.959 44.2963M139.908 45.2711C139.339 44.9767 138.683 44.6477 137.959 44.2963M85.4084 83.7711C90.6584 80.2711 104.908 72.2711 119.908 68.2711C134.908 64.2711 150.492 78.1044 156.408 85.5211M152.408 89.0211L139.908 79.5211M144.658 86.7711C137.742 83.0211 123.508 75.9211 121.908 77.5211C119.908 79.5211 95.9084 81.0211 92.4084 89.0211M93.6584 96.2711C96.825 92.2711 104.258 84.5211 108.658 85.5211M106.908 89.0211C113.918 87.4917 126.609 85.2315 133.177 85.5937C135.958 85.7471 138.543 87.2879 141.038 88.5262C144.468 90.2286 148.316 92.5555 149.158 94.5211C149.279 94.802 149.38 95.0785 149.464 95.3496C150.275 97.9565 147.279 98.7461 145.294 96.8717V96.8717C144.875 96.4754 144.379 96.1682 143.838 95.9686L141.909 95.2581C140.607 94.7786 139.486 93.9073 138.701 92.7643V92.7643C137.712 91.3258 136.201 90.3296 134.489 89.9872L129.658 89.0211M93.6584 100.521L102.908 92.2711M100.408 96.2711L112.158 94.5211M112.158 94.5211L94.9084 105.021M112.158 94.5211C115.908 93.9377 124.908 93.1211 130.908 94.5211C136.908 95.9211 145.575 102.104 149.158 105.021M94.9084 112.021L107.1 105.815C108.112 105.299 108.933 104.473 109.441 103.457V103.457C110.34 101.658 112.179 100.521 114.191 100.521H124.82C127.019 100.521 129.19 100.999 131.171 101.952C138.158 105.313 148.294 110.466 149.158 112.021M152.408 128.021C145.905 122.043 133.311 112.191 125.233 110.934C121.655 110.377 117.879 111.869 114.33 112.59C106.612 114.156 100.713 118.581 98.4084 121.021M94.9084 131.021C100.492 127.188 113.308 119.821 119.908 121.021C128.158 122.521 155.658 131.771 152.408 133.771V133.771C150.464 134.967 146.204 135.898 144.926 134.007L143.783 132.315C143.236 131.506 142.323 131.021 141.347 131.021H137.158M98.4084 142.021C102.825 139.271 113.308 133.771 119.908 133.771C128.158 133.771 149.158 141.771 149.158 146.271M146.658 150.771C143.825 147.771 137.158 141.621 133.158 141.021C129.893 140.531 124.186 140.341 120.386 140.288C118.908 140.267 117.44 140.489 116.026 140.919L106.175 143.911C101.329 145.384 97.5536 149.202 96.1355 154.064L94.9084 158.271M98.4084 150.771L113.658 144.521L119.158 143.021M133.158 146.271C135.825 146.771 141.508 148.371 142.908 150.771C144.308 153.171 146.825 158.271 147.908 160.521L150.658 167.271M147.908 169.271C147.665 168.65 147.371 167.979 147.028 167.271M103.158 158.271C107.658 155.938 117.658 151.771 121.658 153.771C126.658 156.271 132.647 152.271 147.028 167.271M98.4084 176.271C98.825 171.021 103.008 160.521 116.408 160.521C133.158 160.521 143.408 161.271 147.908 174.771C151.508 185.571 148.575 182.271 146.658 179.271C143.658 174.438 136.208 165.021 130.408 166.021C128.885 166.284 127.593 166.437 126.507 166.513C123.308 166.737 119.913 165.811 116.735 166.24C110.734 167.051 103.099 169.993 100.658 177.771C98.2471 185.457 98.7127 186.623 99.6591 185.91C100.467 185.303 101.027 184.42 101.759 183.723L108.375 177.422C110.201 175.683 112.436 174.432 114.873 173.785L123.408 171.521L133.158 169.271V169.271C130.624 170.181 130.995 173.875 133.66 174.262L136.225 174.635C136.835 174.724 137.407 174.983 137.866 175.394C141.654 178.795 147.785 185.267 146.658 188.271M142.908 184.771C140.492 182.438 133.208 177.771 123.408 177.771C113.959 177.771 106.385 184.279 103.464 187.882C103.261 188.133 103.158 188.446 103.158 188.768V188.768C103.158 190.256 105.211 190.864 106.107 189.676C108.821 186.079 112.11 182.801 113.658 184.771M118.158 182.771H127.806C130.333 182.771 132.82 183.41 135.034 184.628L139.559 187.116C140.95 187.881 142.21 188.862 143.294 190.022L147.028 194.021M146.658 197.271C144.742 193.354 137.808 186.071 125.408 188.271C123.923 188.535 122.582 188.748 121.375 188.918C119.975 189.116 105.493 195.825 104.645 196.956V196.956C104.491 197.16 104.408 197.409 104.408 197.665V197.904C104.408 199.72 107.032 200.772 108.504 199.708C112.427 196.874 118.604 194.021 126.658 194.021C138.658 194.021 143.825 200.354 144.908 203.521M142.908 205.021C136.992 202.021 124.808 196.571 123.408 198.771C122.008 200.971 111.658 202.854 106.658 203.521M142.908 210.271C142.908 206.771 137.158 205.021 125.408 203.521C116.485 202.382 108.358 207.01 104.919 209.835C104.749 209.974 104.863 210.238 105.082 210.222V210.222M141.658 212.771C139.242 211.104 132.608 208.271 125.408 210.271C121.425 211.378 117.105 212.892 113.49 214.265C112.154 214.772 110.991 212.959 112.034 211.981V211.981C112.909 211.161 112.267 209.696 111.071 209.784L105.082 210.222M105.082 210.222L106.658 222.271M106.658 222.271L119.908 217.021M106.658 222.271V222.271C107.524 224.724 110.039 226.204 112.567 225.592C115.933 224.778 119.801 223.598 121.658 222.271C123.967 220.622 133.797 223.051 140.867 225.216C142.859 225.826 144.908 224.355 144.908 222.271V222.271M119.908 217.021L128.907 214.664C129.905 214.403 130.926 214.234 131.958 214.234C135.528 214.234 140.796 214.778 141.658 217.021M119.908 217.021C121.494 217.245 123.396 217.488 125.408 217.709M141.658 217.021L144.908 222.271M141.658 217.021C142.452 219.083 133.126 218.556 125.408 217.709M144.908 222.271H139.968C138.111 222.271 136.27 221.926 134.539 221.254L125.408 217.709M142.908 233.521C143.575 231.188 144.258 227.021 141.658 229.021C139.417 230.745 132.183 229.497 127.454 228.318C126.089 227.978 124.695 227.771 123.288 227.771H116.697C116.506 227.771 116.317 227.804 116.138 227.87V227.87C114.445 228.485 114.722 230.027 116.52 230.132C124.463 230.596 136.046 232.329 142.908 233.521ZM142.908 233.521L125.533 234.646M142.908 237.271L125.533 234.646M125.533 234.646L110.528 235.618C109.195 235.704 108.158 236.81 108.158 238.146V238.146M141.658 239.271C142.908 235.771 111.908 242.771 108.158 238.146M141.658 239.271C140.69 241.982 120.274 241.318 109.219 240.593M141.658 239.271V243.521M108.158 238.146V239.458C108.158 240.057 108.622 240.554 109.219 240.593V240.593M109.219 240.593C112.366 241.986 119.608 244.771 123.408 244.771C125.852 244.771 130.612 245.215 134.658 245.248M109.219 240.593C108.751 241.128 108.18 242.183 108.098 243.521M141.658 243.521C141.658 244.943 138.476 245.279 134.658 245.248M141.658 243.521V246.646M141.658 249.771C131.699 250.188 111.268 250.271 109.219 247.271M141.658 249.771V246.646M141.658 249.771C140.2 251.021 136.458 253.321 133.158 252.521C129.858 251.721 127.45 251.688 126.658 251.771C123.992 252.271 118.208 253.121 116.408 252.521C114.608 251.921 110.866 248.771 109.219 247.271M141.658 249.771V254.521M109.219 247.271C108.294 245.917 108.031 244.623 108.098 243.521M109.219 247.271C110.073 249.604 111.268 254.371 109.219 254.771C107.533 255.1 110.101 256.948 113.408 258.171M109.219 247.271C109.219 248.369 109.219 250.288 109.219 252.688C109.219 258.363 114.308 262.685 119.908 261.764V261.764M108.098 243.521L120.317 246.514C122.355 247.013 124.475 247.079 126.541 246.708L129.033 246.259M134.658 245.248L129.033 246.259M129.033 246.259C128.992 247.43 130.058 249.521 134.658 248.521C139.258 247.521 141.242 246.854 141.658 246.646M141.658 259.271C139.389 259.271 135.896 259.373 133.158 259.686M141.658 259.271V256.896M141.658 259.271L139.158 263.521M141.658 254.521L140.622 254.615C138.174 254.838 127.937 256.286 125.533 255.771V255.771C121.417 254.89 118.81 254.386 117.242 254.13C114.991 253.764 117.257 255.349 118.889 256.941L121.658 259.642M141.658 254.521V256.896M121.658 259.642C120.659 259.421 119.64 259.271 118.658 259.271C117.036 259.271 115.123 258.805 113.408 258.171M121.658 259.642C125.493 260.494 129.033 262.409 129.033 261.021C129.033 260.376 130.82 259.954 133.158 259.686M133.158 259.686L141.658 256.896M139.158 263.521C135.325 264.688 127.233 266.671 125.533 265.271C124.663 264.554 122.378 263.177 119.908 261.764M139.158 263.521C139.158 266.438 138.508 272.671 135.908 274.271M113.408 258.171C115.035 259.041 117.556 260.419 119.908 261.764M109.219 265.271C110.845 267.521 113.61 272.471 111.658 274.271M111.658 274.271C109.219 276.521 132.658 276.271 135.908 274.271M111.658 274.271C111.658 275.188 112.008 277.871 113.408 281.271C115.158 285.521 126.658 283.271 130.658 283.021C133.858 282.821 135.492 277.104 135.908 274.271M164.408 56.2711C163.286 54.9891 162.002 53.4605 160.65 51.7711M160.65 51.7711C160.613 51.7269 160.578 51.6828 160.545 51.639M160.65 51.7711C160.615 51.7272 160.58 51.6831 160.545 51.639M160.545 51.639C153.475 42.7864 144.601 29.6188 147.028 24.2711C150.658 16.2711 171.408 16.7711 170.908 29.0211C170.877 29.7868 170.85 30.524 170.826 31.233C170.564 39.0271 155.811 45.4414 160.545 51.639V51.639ZM167.408 150.771C162.864 149.814 160 152.981 158.325 156.787C156.365 161.239 158.239 166.688 158.722 171.528C159.426 178.595 158.342 188 156.408 188.271V188.271C151.009 189.028 165.731 184.993 167.247 179.756C170.692 167.851 173.375 152.027 167.408 150.771Z" stroke="#3A2B2A"/>
</g>
<defs>
<linearGradient id="paint0_linear_301_10" x1="124.229" y1="0.303223" x2="124.229" y2="174.271" gradientUnits="userSpaceOnUse">
<stop stop-color="#553635"/>
<stop offset="1" stop-color="#61403F"/>
</linearGradient>
<linearGradient id="paint1_linear_301_10" x1="124.229" y1="0.303223" x2="124.229" y2="174.271" gradientUnits="userSpaceOnUse">
<stop stop-color="#462F2D"/>
<stop offset="1" stop-color="#392B2B"/>
</linearGradient>
<linearGradient id="paint2_linear_301_10" x1="100.408" y1="33.7711" x2="197.408" y2="198.771" gradientUnits="userSpaceOnUse">
<stop stop-color="#412F2F"/>
<stop offset="0.214587" stop-color="#724D4C"/>
</linearGradient>
<linearGradient id="paint3_linear_301_10" x1="100.408" y1="33.7711" x2="197.408" y2="198.771" gradientUnits="userSpaceOnUse">
<stop stop-color="#412F2F"/>
<stop offset="0.214587" stop-color="#724D4C"/>
</linearGradient>
<clipPath id="clip0_301_10">
<rect x="0.171875" y="0.0532227" width="248.115" height="284.036" rx="34.75" fill="white"/>
</clipPath>
</defs>
</svg>
