<svg width="100" height="100" viewBox="0 0 100 100" fill="none" xmlns="http://www.w3.org/2000/svg">
<rect width="100" height="100" rx="50" fill="#E08857" fill-opacity="0.3"/>
<path d="M50 54.2917C54.1076 54.2917 57.4375 50.9618 57.4375 46.8542C57.4375 42.7466 54.1076 39.4167 50 39.4167C45.8924 39.4167 42.5625 42.7466 42.5625 46.8542C42.5625 50.9618 45.8924 54.2917 50 54.2917Z" fill="white"/>
<path d="M29.175 61.6417L27.5292 61.2208C15.3042 58.1333 8.29166 52.8833 8.29166 46.8375C8.29166 40.7875 15.3083 35.5417 27.5292 32.4542L29.175 32.0375L29.6375 33.6667C30.8731 37.9321 32.4562 42.089 34.3708 46.0958L34.725 46.8375L34.3708 47.5792C32.4542 51.5917 30.8667 55.75 29.6375 60.0167L29.175 61.6417ZM26.7708 36.2458C17.4833 38.8625 11.7792 42.8542 11.7792 46.8375C11.7792 50.8125 17.4792 54.8083 26.7708 57.4208C27.9083 53.8042 29.2833 50.2667 30.875 46.8375C29.2718 43.4026 27.9007 39.8641 26.7708 36.2458ZM70.8208 61.6417L70.3625 60.0083C69.1236 55.7421 67.5392 51.5839 65.625 47.575L65.2708 46.8375L65.625 46.0917C67.5417 42.0875 69.1208 37.925 70.3625 33.6583L70.8208 32.0333L72.4667 32.45C84.6958 35.5375 91.7042 40.7833 91.7042 46.8375C91.7042 52.8875 84.6917 58.1333 72.4667 61.2208L70.8208 61.6417ZM69.1125 46.8375C70.7792 50.4458 72.1667 53.9958 73.225 57.4208C82.5167 54.8083 88.2208 50.8125 88.2208 46.8375C88.2208 42.8542 82.5208 38.8667 73.225 36.2458C72.0886 39.863 70.7148 43.4012 69.1125 46.8375Z" fill="white"/>
<path d="M26.7458 36.2292L26.2875 34.6042C22.8458 22.4875 23.8875 13.8083 29.15 10.7833C34.2958 7.80418 42.575 11.325 51.2458 20.2208L52.4292 21.4375L51.2458 22.65C48.1662 25.8529 45.3514 29.3003 42.8292 32.9583L42.3583 33.6333L41.5417 33.7C37.1066 34.0483 32.7073 34.7576 28.3875 35.8208L26.7458 36.2292ZM33.3375 13.1917C32.4042 13.1917 31.5792 13.3958 30.8833 13.7958C27.4333 15.7833 26.825 22.7042 29.2 32.0458C32.9125 31.225 36.6583 30.6375 40.4333 30.3083C42.6188 27.2086 45.003 24.2538 47.5708 21.4625C42.1417 16.1833 37.0167 13.1917 33.3375 13.1917ZM66.6583 83.9583C61.7083 83.9583 55.35 80.225 48.75 73.45L47.5708 72.2375L48.75 71.0292C51.8302 67.8212 54.6463 64.3697 57.1708 60.7083L57.6375 60.0417L58.4458 59.9625C62.8825 59.6204 67.2834 58.9138 71.6042 57.85L73.25 57.4333L73.7125 59.0625C77.1375 71.1708 76.1 79.8625 70.8458 82.8875C69.5701 83.6106 68.1246 83.9803 66.6583 83.9583ZM52.4292 72.2083C57.8542 77.4875 62.9833 80.4833 66.6583 80.4833C67.5958 80.4833 68.4208 80.275 69.1125 79.8792C72.5667 77.8875 73.1792 70.9542 70.7958 61.6125C67.0875 62.4375 63.3375 63.0292 59.5542 63.3583C57.378 66.463 54.9977 69.4195 52.4292 72.2083Z" fill="white"/>
<path d="M73.25 36.2291L71.6041 35.8166C67.2836 34.7501 62.8827 34.0408 58.4458 33.6958L57.6375 33.625L57.1708 32.95C54.6498 29.2899 51.8334 25.8423 48.75 22.6416L47.5708 21.4291L48.75 20.2208C57.4166 11.3291 65.6917 7.80831 70.8458 10.7833C76.1041 13.8125 77.15 22.4916 73.7125 34.6041L73.25 36.2291ZM59.5541 30.3083C63.5291 30.6625 67.2958 31.2583 70.7958 32.0458C73.175 22.7041 72.5666 15.7833 69.1125 13.7916C65.6791 11.8041 59.2167 14.8458 52.4292 21.4625C54.9958 24.2541 57.3792 27.2041 59.5541 30.3083ZM33.3375 83.9583C31.8714 83.9792 30.4261 83.6096 29.15 82.8875C23.8875 79.8625 22.8458 71.175 26.2833 59.0625L26.7333 57.4333L28.3792 57.85C32.3958 58.8625 36.8208 59.575 41.5375 59.9625L42.3458 60.0416L42.8167 60.7083C45.3333 64.3666 48.15 67.8208 51.2333 71.0291L52.4167 72.2375L51.2333 73.45C44.6375 80.2291 38.2792 83.9583 33.3375 83.9583ZM29.2 61.6166C26.825 70.9583 27.4333 77.8916 30.8833 79.8833C34.3208 81.8416 40.7625 78.8208 47.5708 72.2083C45.004 69.4162 42.6198 66.4615 40.4333 63.3625C36.6545 63.0283 32.9019 62.4451 29.2 61.6166Z" fill="white"/>
<path d="M50 63.8042C47.1375 63.8042 44.2 63.6834 41.25 63.4375L40.4333 63.3667L39.9625 62.6917C38.299 60.2996 36.7338 57.8406 35.2708 55.3209C33.8187 52.7943 32.469 50.2103 31.225 47.575L30.875 46.8375L31.225 46.0917C32.4708 43.4584 33.8167 40.875 35.2708 38.35C36.7167 35.8667 38.2958 33.3834 39.9625 30.975L40.4333 30.3084L41.25 30.2334C47.0704 29.7459 52.9213 29.7459 58.7417 30.2334L59.55 30.3125L60.0208 30.9792C63.3533 35.7657 66.2801 40.8221 68.7708 46.0959L69.1167 46.8417L68.7708 47.5792C66.287 52.8565 63.3599 57.9136 60.0208 62.6959L59.55 63.3709L58.7417 63.4417C55.8 63.6792 52.8583 63.8042 50 63.8042ZM42.3583 60.0375C47.5042 60.425 52.4958 60.425 57.6375 60.0375C60.5079 55.8342 63.0594 51.4219 65.2708 46.8375C63.0673 42.249 60.5153 37.8361 57.6375 33.6375C52.552 33.2459 47.4439 33.2459 42.3583 33.6375C39.4781 37.8346 36.9261 42.2477 34.725 46.8375C36.9412 51.4194 39.4925 55.8314 42.3583 60.0375Z" fill="white"/>
</svg>
