<svg width="100" height="100" viewBox="0 0 100 100" fill="none" xmlns="http://www.w3.org/2000/svg">
<rect width="100" height="100" rx="50" fill="#43291A"/>
<path d="M75.9125 48.5844C78.8835 48.7852 81.8262 47.8989 84.1921 46.0907C86.558 44.2825 88.1857 41.6757 88.7719 38.7562C88.0437 37.6272 87.044 36.699 85.8642 36.0564C84.6843 35.4138 83.3622 35.0774 82.0188 35.0781C74.9188 34.9156 71.1094 43.3625 75.9156 48.5875L75.9125 48.5844ZM47.2344 14.6781L63.9813 4.9781L58.6438 1.96873L35.5469 15.3469L37.3875 16.3719L40.8844 18.3375L47.2344 14.6625V14.6781ZM66.1281 4.08435C66.4063 4.16873 66.6313 4.39685 66.7156 4.67185L74.4781 28.4C74.5496 28.5965 74.5496 28.8119 74.4782 29.0085C74.4068 29.205 74.2685 29.3702 74.0875 29.475C71.0959 31.2352 68.7664 33.9306 67.4579 37.1455C66.1495 40.3605 65.9348 43.9166 66.8469 47.2656C67.8357 50.8799 70.0744 54.0263 73.1649 56.1452C76.2554 58.2641 79.9973 59.2181 83.725 58.8375C83.9328 58.8211 84.14 58.8746 84.3139 58.9896C84.4877 59.1045 84.6181 59.2743 84.6844 59.4719L92.6938 83.8562C92.7564 84.0534 92.752 84.2658 92.6814 84.4602C92.6107 84.6546 92.4777 84.8203 92.3031 84.9312L67.7438 99.8406C67.619 99.912 67.4781 99.9507 67.3344 99.9531C67.2255 99.976 67.1131 99.9764 67.004 99.9544C66.8949 99.9324 66.7915 99.8883 66.7 99.825L58.0594 94.2094C57.9108 94.109 57.7929 93.9694 57.7188 93.8062L40.8563 53.5062L15.1719 68.7406C15.1219 68.775 15.0563 68.8062 15.0094 68.8406C14.8777 68.8937 14.7354 68.9154 14.5938 68.904C14.4523 68.8926 14.3153 68.8484 14.1938 68.775L8.38439 65.3594C8.17981 65.2482 8.02734 65.0608 7.96006 64.8379C7.89278 64.615 7.91612 64.3745 8.02501 64.1687L32.8781 14.9531C32.9658 14.771 33.1153 14.6259 33.3 14.5437L58.1719 0.140602C58.3093 0.0584281 58.4659 0.0137402 58.626 0.0109985C58.7862 0.00825676 58.9442 0.047557 59.0844 0.124977L66.1281 4.08435ZM40.1219 20.0219L34.0844 16.6187L10.0438 64.2094L14.4063 66.7812L35.1281 38.6094C35.2203 38.4741 35.3485 38.3674 35.4981 38.3011C35.6478 38.2349 35.8129 38.2117 35.975 38.2344C36.1358 38.252 36.2889 38.3127 36.4182 38.4101C36.5474 38.5074 36.648 38.6378 36.7094 38.7875L59.2969 92.8375L65.3375 96.7468L40.1406 20.0219H40.1219ZM82.0156 53.0125C74.9656 53.0125 70.1813 45.85 72.8813 39.3375C75.5688 32.8281 84.0156 31.1531 88.9938 36.1343C90.8531 37.9875 91.8938 40.4969 91.8938 43.1187C91.897 44.4178 91.6439 45.7046 91.1489 46.9057C90.6539 48.1067 89.9267 49.1982 89.009 50.1176C88.0913 51.037 87.0012 51.7663 85.8011 52.2636C84.6011 52.7609 83.3147 53.0133 82.0156 53.0125Z" fill="white"/>
</svg>
