<svg width="31" height="30" viewBox="0 0 31 30" fill="none" xmlns="http://www.w3.org/2000/svg">
<path d="M15.5 0.916748C13.5849 0.916748 11.6885 1.29396 9.9192 2.02684C8.14987 2.75972 6.54222 3.83392 5.18803 5.18811C2.45313 7.92301 0.916672 11.6323 0.916672 15.5001C0.916672 21.9459 5.10209 27.4147 10.8917 29.3542C11.6208 29.4709 11.8542 29.0188 11.8542 28.6251V26.1605C7.81459 27.0355 6.95417 24.2063 6.95417 24.2063C6.28334 22.5147 5.33542 22.0626 5.33542 22.0626C4.00834 21.1584 5.43751 21.1876 5.43751 21.1876C6.89584 21.2897 7.66876 22.6897 7.66876 22.6897C8.93751 24.9063 11.0813 24.2501 11.9125 23.9001C12.0438 22.9522 12.4229 22.3105 12.8313 21.9459C9.59376 21.5813 6.19584 20.3272 6.19584 14.7709C6.19584 13.1522 6.75001 11.8542 7.69792 10.8188C7.55209 10.4542 7.04167 8.93758 7.84376 6.96883C7.84376 6.96883 9.06876 6.57508 11.8542 8.45633C13.0063 8.1355 14.2604 7.97508 15.5 7.97508C16.7396 7.97508 17.9938 8.1355 19.1458 8.45633C21.9313 6.57508 23.1563 6.96883 23.1563 6.96883C23.9583 8.93758 23.4479 10.4542 23.3021 10.8188C24.25 11.8542 24.8042 13.1522 24.8042 14.7709C24.8042 20.3417 21.3917 21.5667 18.1396 21.9313C18.6646 22.3834 19.1458 23.273 19.1458 24.6292V28.6251C19.1458 29.0188 19.3792 29.4855 20.1229 29.3542C25.9125 27.4001 30.0833 21.9459 30.0833 15.5001C30.0833 13.585 29.7061 11.6886 28.9732 9.91928C28.2404 8.14995 27.1662 6.5423 25.812 5.18811C24.4578 3.83392 22.8501 2.75972 21.0808 2.02684C19.3115 1.29396 17.4151 0.916748 15.5 0.916748Z" fill="black"/>
</svg>
