<svg width="31" height="26" viewBox="0 0 31 26" fill="none" xmlns="http://www.w3.org/2000/svg">
<path d="M30.7542 3.74992C29.6312 4.26034 28.4208 4.59575 27.1667 4.75617C28.45 3.98325 29.4417 2.75825 29.9083 1.28534C28.6979 2.0145 27.3562 2.52492 25.9417 2.81659C24.7896 1.56242 23.1708 0.833252 21.3333 0.833252C17.9062 0.833252 15.1062 3.63325 15.1062 7.0895C15.1062 7.58534 15.1646 8.06659 15.2667 8.51867C10.075 8.25617 5.45207 5.76242 2.37499 1.98534C1.8354 2.90409 1.52915 3.98325 1.52915 5.12075C1.52915 7.29367 2.6229 9.21867 4.31457 10.3124C3.27915 10.3124 2.31665 10.0208 1.47082 9.58325V9.627C1.47082 12.6603 3.62915 15.1978 6.48749 15.7666C5.5698 16.0177 4.60637 16.0527 3.6729 15.8687C4.069 17.1119 4.84473 18.1997 5.89105 18.9792C6.93738 19.7587 8.20168 20.1907 9.50624 20.2145C7.29486 21.9651 4.55373 22.9114 1.73332 22.8978C1.23749 22.8978 0.741652 22.8687 0.245819 22.8103C3.01665 24.5895 6.31249 25.6249 9.84165 25.6249C21.3333 25.6249 27.6479 16.0874 27.6479 7.81867C27.6479 7.54159 27.6479 7.27908 27.6333 7.002C28.8583 6.127 29.9083 5.01867 30.7542 3.74992Z" fill="black"/>
</svg>
